<svg xmlns="http://www.w3.org/2000/svg" width="48" height="48" fill="none" viewBox="0 0 48 48"><rect width="48" height="48" fill="#e0e0e0" rx="24"/><path fill="#000" d="M32 20a8 8 0 1 1-16 0 8 8 0 0 1 16 0" opacity=".2"/><path fill="#000" d="M36.865 34.5c-1.904-3.291-4.838-5.651-8.261-6.77a9 9 0 1 0-9.208 0c-3.424 1.117-6.357 3.477-8.261 6.77a.997.997 0 0 0 .352 1.389 1 1 0 0 0 1.38-.389C15.22 31.43 19.383 29 24 29s8.779 2.43 11.134 6.5a1.001 1.001 0 1 0 1.73-1M17 20a7 7 0 1 1 7 7 7.007 7.007 0 0 1-7-7"/></svg>