<svg width="416" height="95" viewBox="0 0 416 95" fill="none" xmlns="http://www.w3.org/2000/svg">
<g clip-path="url(#clip0_1329_26)">
<mask id="mask0_1329_26" style="mask-type:luminance" maskUnits="userSpaceOnUse" x="0" y="0" width="416" height="95">
<path d="M0 0H416V95H0V0Z" fill="white"/>
</mask>
<g mask="url(#mask0_1329_26)">
<path d="M41.6402 69.385C29.0062 67.853 20.1052 58.762 20.1052 46.99C20.1052 42.205 21.8282 37.037 24.6992 33.592C23.4552 30.434 23.6462 23.734 25.0822 20.959C28.9102 20.48 34.0782 22.49 37.1402 25.266C40.7772 24.117 44.6052 23.543 49.2952 23.543C53.9852 23.543 57.8122 24.117 61.2572 25.17C64.2242 22.49 69.4882 20.48 73.3172 20.959C74.6562 23.543 74.8472 30.242 73.6032 33.496C76.6662 37.133 78.2932 42.014 78.2932 46.99C78.2932 58.762 69.3932 67.662 56.5682 69.29C59.8222 71.394 62.0232 75.988 62.0232 81.252V91.205C62.0232 94.076 64.4162 95.703 67.2872 94.555C84.6102 87.95 98.2002 70.629 98.2002 49.19C98.2002 22.107 76.1882 0 49.1042 0C22.0202 0 0.200195 22.107 0.200195 49.191C0.200195 70.437 13.6942 88.047 31.8782 94.651C34.4622 95.607 36.9502 93.885 36.9502 91.301V83.644C35.6102 84.219 33.8882 84.602 32.3562 84.602C26.0402 84.602 22.3072 81.156 19.6282 74.744C18.5752 72.16 17.4272 70.629 15.2252 70.342C14.0772 70.246 13.6952 69.768 13.6952 69.193C13.6952 68.045 15.6082 67.183 17.5222 67.183C20.2982 67.183 22.6902 68.906 25.1792 72.447C27.0932 75.223 29.1022 76.467 31.4952 76.467C33.8882 76.467 35.4192 75.606 37.6202 73.404C39.2472 71.777 40.4912 70.343 41.6402 69.385Z" fill="white"/>
<mask id="mask1_1329_26" style="mask-type:luminance" maskUnits="userSpaceOnUse" x="117" y="9" width="299" height="77">
<path d="M117.185 9.49304H415.253V85.433H117.185V9.49304Z" fill="white"/>
</mask>
<g mask="url(#mask1_1329_26)">
<path d="M188.937 83.0051V33.2821H202.915V83.0031L188.937 83.0051ZM230.016 83.0051C220.727 83.0051 217.099 79.0231 217.099 70.6181V44.9611H208.252V33.2831H217.099V23.3731L231.078 20.1001V33.2831H241.429V44.9601H231.078V67.5201C231.078 70.2631 232.317 71.3251 235.059 71.3251H241.429V83.0041L230.016 83.0051ZM327.47 83.8891C316.588 83.8891 310.66 77.8731 310.66 66.9021V33.2821H324.728V63.1871C324.728 69.2911 327.47 72.6531 332.69 72.6531C338.706 72.6531 343.307 67.0791 343.307 59.4711V33.2831H357.374V83.0041H343.307V74.6001C340.653 79.9961 334.283 83.8891 327.47 83.8891ZM394.613 83.8901C387.832 83.8901 381.639 79.9971 378.687 74.4241V83.0051H364.709V13.6421H378.776V42.3951C381.639 36.3791 388.098 32.1321 394.613 32.1321C408.181 32.1321 415.348 41.5111 414.873 58.0551C415.348 74.4231 407.916 83.8901 394.613 83.8901ZM389.658 72.1221C396.945 72.1221 400.926 66.7251 400.452 58.0551C400.926 49.2961 396.945 43.8991 389.658 43.8991C383.851 43.8991 379.251 49.5621 378.776 57.3471V58.1441C379.251 66.1941 383.851 72.1221 389.658 72.1221ZM288.734 13.6421V41.7761H262.369V13.6421H247.329V83.0051H262.369V55.2231H288.734V83.0031H303.775V13.6421H288.734ZM150.628 84.3321C130.102 84.3321 117.185 70.2641 117.185 48.2351C117.185 26.2061 130.368 12.3151 151.247 12.3151C168.234 12.3151 178.497 19.5691 181.77 31.7791L166.553 35.4061C164.695 28.7711 159.387 25.1431 151.247 25.1431C139.126 25.1431 132.579 33.1061 132.579 48.2351C132.579 63.3641 138.949 71.5031 150.893 71.5031C161.864 71.5031 168.411 64.7791 168.411 53.3661V50.7121L172.304 56.1091H149.655V43.3691H183.628V51.4191C183.628 72.5651 171.331 84.3321 150.628 84.3321ZM195.926 28.5941C200.615 28.5941 204.243 24.9661 204.243 20.2771C204.243 15.5881 200.615 11.9611 195.926 11.9611C191.237 11.9611 187.61 15.5881 187.61 20.2771C187.61 24.9661 191.237 28.5941 195.926 28.5941Z" fill="white"/>
</g>
</g>
</g>
<defs>
<clipPath id="clip0_1329_26">
<rect width="416" height="95" fill="white"/>
</clipPath>
</defs>
</svg>
