<svg width="140" height="34" viewBox="0 0 140 34" fill="none" xmlns="http://www.w3.org/2000/svg">
<g clip-path="url(#clip0_1331_12)">
<mask id="mask0_1331_12" style="mask-type:luminance" maskUnits="userSpaceOnUse" x="0" y="0" width="140" height="34">
<path d="M0 0H140V34H0V0Z" fill="white"/>
</mask>
<g mask="url(#mask0_1331_12)">
<path d="M43.616 19.576C43.616 23.5814 42.2267 25.584 39.448 25.584C39.0216 25.5848 38.5972 25.5262 38.187 25.41V24.298C38.6417 24.4527 39.07 24.53 39.472 24.53C40.5367 24.53 41.3047 24.127 41.776 23.321C42.2473 22.515 42.4827 21.2587 42.482 19.552V8.69304H43.616V19.576ZM47.065 24.705V23.396C48.2537 24.152 49.4577 24.5304 50.677 24.531C51.973 24.531 52.957 24.2627 53.629 23.726C54.3003 23.1887 54.636 22.4384 54.636 21.475C54.636 20.6244 54.41 19.947 53.958 19.443C53.5073 18.9377 52.529 18.2487 51.023 17.376C49.341 16.3974 48.276 15.5774 47.828 14.916C47.3813 14.256 47.1577 13.494 47.157 12.63C47.157 11.4574 47.6123 10.4614 48.523 9.64204C49.4337 8.82471 50.6493 8.41571 52.17 8.41504C53.1781 8.41934 54.1789 8.58754 55.133 8.91304V10.117C54.1545 9.6769 53.0929 9.45183 52.02 9.45704C50.8933 9.45704 49.9997 9.74304 49.339 10.315C48.679 10.8864 48.349 11.612 48.349 12.492C48.349 13.3407 48.5747 14.016 49.026 14.518C49.478 15.0187 50.4523 15.7014 51.949 16.566C53.5003 17.4474 54.5327 18.229 55.046 18.911C55.5593 19.595 55.816 20.3804 55.816 21.267C55.816 22.5404 55.3743 23.5784 54.491 24.381C53.607 25.1837 52.3583 25.585 50.745 25.585C50.173 25.5844 49.5153 25.4957 48.772 25.319C48.0273 25.141 47.4583 24.9364 47.065 24.705ZM59.104 25.295V8.69304H64.985C70.8803 8.69304 73.8283 11.3907 73.829 16.786C73.829 19.3714 73.0247 21.436 71.416 22.98C69.806 24.5234 67.6623 25.295 64.985 25.295H59.104ZM62.844 11.739V22.261H64.696C66.3167 22.261 67.588 21.775 68.51 20.803C69.432 19.8297 69.893 18.5064 69.893 16.833C69.893 15.2504 69.4357 14.0057 68.521 13.099C67.6063 12.1924 66.323 11.739 64.671 11.739H62.844ZM86.841 25.295H76.884V8.69304H86.458V11.739H80.624V15.432H86.054V18.464H80.624V22.26H86.841V25.295ZM99.893 25.295H90.006V8.69304H93.746V22.261H99.893V25.295ZM105.989 8.69304V25.295H102.249V8.69304H105.989ZM123.834 8.69304L118.115 25.295H113.879L108.228 8.69304H112.257L115.719 20.246C115.904 20.8714 116.016 21.4237 116.055 21.903H116.123C116.19 21.3258 116.311 20.756 116.483 20.201L119.922 8.69304H123.834ZM140 25.295H135.705L133.124 21.022C132.948 20.7272 132.763 20.4377 132.569 20.154C132.408 19.9212 132.228 19.7024 132.03 19.5C131.866 19.3305 131.674 19.1898 131.463 19.084C131.263 18.987 131.043 18.937 130.82 18.939H129.814V25.295H126.074V8.69304H132C136.029 8.69304 138.043 10.198 138.043 13.208C138.048 13.7541 137.958 14.2969 137.777 14.812C137.599 15.302 137.348 15.7437 137.025 16.137C136.691 16.5388 136.294 16.8833 135.849 17.157C135.371 17.451 134.855 17.6765 134.315 17.827V17.874C134.562 17.9514 134.801 18.0764 135.034 18.249C135.265 18.4224 135.489 18.6257 135.704 18.859C135.921 19.0897 136.128 19.3384 136.323 19.605C136.52 19.8704 136.7 20.131 136.862 20.387L140 25.295ZM129.815 11.495V16.114H131.435C132.238 16.114 132.882 15.8827 133.367 15.42C133.607 15.1974 133.797 14.9264 133.925 14.625C134.053 14.3235 134.116 13.9984 134.109 13.671C134.108 12.2204 133.24 11.4947 131.504 11.494L129.815 11.495Z" fill="white"/>
<path fill-rule="evenodd" clip-rule="evenodd" d="M28.6542 26.297L15.3862 33.662V25.512C17.232 25.512 19.0367 24.9669 20.5738 23.945C22.1109 22.9231 23.3119 21.47 24.0262 19.768C23.1373 19.52 22.2751 19.1847 21.4522 18.767C21.1708 19.0214 20.8124 19.1743 20.4341 19.2015C20.0557 19.2287 19.6791 19.1286 19.3642 18.917L19.3392 18.934C19.3092 18.9547 19.2792 18.9733 19.2492 18.99C18.057 19.7521 16.7539 20.3249 15.3862 20.688V19.575C16.5592 19.2312 17.6774 18.7225 18.7072 18.064C18.5877 17.7218 18.5807 17.3504 18.6872 17.004C17.4439 16.0287 16.3343 14.894 15.3872 13.629V12.54C15.5081 12.4569 15.6069 12.3454 15.6748 12.2154C15.7428 12.0854 15.778 11.9407 15.7772 11.794C15.7771 11.6481 15.7416 11.5045 15.6737 11.3754C15.6057 11.2463 15.5074 11.1357 15.3872 11.053V10.172C15.4352 10.1873 15.4832 10.2057 15.5312 10.227C16.6006 9.18183 17.8018 8.28057 19.1042 7.54601C17.9309 7.03708 16.6652 6.77563 15.3862 6.77801V0.338013L31.1372 5.80701L28.6542 26.297ZM24.3842 18.753C24.8729 17.0562 24.8753 15.2562 24.3912 13.558C23.7152 14.7703 22.8742 15.8829 21.8922 16.864C22.0182 17.173 22.0502 17.512 21.9842 17.839C22.7512 18.224 23.5552 18.529 24.3842 18.753ZM23.8812 12.196C23.8172 12.336 23.7506 12.4747 23.6812 12.612C23.0338 13.878 22.1945 15.0364 21.1932 16.046C20.9061 15.8727 20.5741 15.7882 20.239 15.8032C19.904 15.8181 19.5808 15.9318 19.3102 16.13C18.788 15.7172 18.2905 15.2741 17.8202 14.803C17.2247 14.208 16.6742 13.5696 16.1732 12.893C16.4023 12.6241 16.5416 12.2904 16.5717 11.9384C16.6018 11.5865 16.5213 11.2339 16.3412 10.93C17.499 9.80869 18.8196 8.86875 20.2582 8.14201C21.8389 9.10696 23.0993 10.5173 23.8812 12.196ZM20.9812 18.153C21.0615 18.0656 21.1236 17.9631 21.1642 17.8516C21.2047 17.74 21.2227 17.6216 21.2172 17.503C21.2162 17.3093 21.1534 17.1209 21.038 16.9653C20.9225 16.8097 20.7604 16.6951 20.5752 16.638C20.4403 16.5978 20.2979 16.5895 20.1593 16.6139C20.0206 16.6383 19.8896 16.6946 19.7765 16.7785C19.6635 16.8623 19.5715 16.9714 19.5079 17.097C19.4443 17.2226 19.4109 17.3612 19.4102 17.502L19.4112 17.539L19.4302 17.553L19.4372 17.558L19.4412 17.562L19.4132 17.584C19.4211 17.7625 19.4818 17.9347 19.5876 18.0787C19.6934 18.2228 19.8395 18.3322 20.0075 18.3931C20.1755 18.454 20.3578 18.4637 20.5313 18.421C20.7048 18.3782 20.8607 18.285 20.9812 18.153Z" fill="white"/>
<path fill-rule="evenodd" clip-rule="evenodd" d="M0 5.88001L15.386 0.338013V6.77801C14.7767 6.77801 14.1857 6.83401 13.613 6.94601C13.638 7.14301 13.673 7.35001 13.714 7.55201C13.882 8.41201 14.163 9.27701 14.543 10.127C14.823 10.07 15.113 10.086 15.386 10.172V11.052C15.2466 10.9551 15.0826 10.8997 14.913 10.892H14.875C14.6441 10.8845 14.4191 10.9659 14.2465 11.1194C14.0738 11.2729 13.9666 11.4867 13.947 11.7169C13.9274 11.9471 13.9968 12.1761 14.141 12.3566C14.2852 12.537 14.4932 12.6553 14.722 12.687H14.726L14.73 12.688L14.747 12.693C14.7883 12.697 14.831 12.699 14.875 12.699C15.0575 12.6991 15.2357 12.6436 15.386 12.54V13.629L15.343 13.574C15.3118 13.5351 15.2822 13.4951 15.254 13.454C14.9154 13.5317 14.5612 13.5037 14.239 13.374C13.105 14.981 12.327 16.716 11.989 18.424C11.9577 18.586 11.93 18.7443 11.906 18.899C12.383 19.094 12.754 19.495 12.902 19.991C12.9167 19.9877 12.932 19.9863 12.948 19.987C13.757 19.947 14.575 19.807 15.386 19.575V20.688C14.606 20.892 13.806 21.015 13.001 21.055L12.873 21.063C12.722 21.473 12.419 21.807 12.034 22.003C12.279 22.912 12.722 23.701 13.353 24.33C13.877 24.854 14.515 25.25 15.244 25.51L15.385 25.512L15.386 33.662L2.186 26.372L0 5.88001ZM8.654 22.657C9.74316 23.7841 11.0979 24.6197 12.594 25.087C11.802 24.299 11.256 23.31 10.969 22.153C10.6053 22.0875 10.2729 21.9052 10.0221 21.6338C9.7713 21.3624 9.61574 21.0167 9.579 20.649L9.468 20.612C8.66383 20.3504 7.90264 19.9717 7.209 19.488C6.9301 19.2896 6.66422 19.0735 6.413 18.841C6.84294 20.2732 7.61045 21.5812 8.651 22.655L8.654 22.657ZM7.209 19.487L7.212 19.494L7.213 19.497L7.209 19.487ZM13.174 11.794C13.174 12.118 13.262 12.421 13.417 12.677C12.167 14.43 11.309 16.333 10.938 18.216C10.8967 18.4253 10.8617 18.6317 10.833 18.835C10.404 18.948 10.043 19.228 9.817 19.597C9.80482 19.5958 9.79296 19.5925 9.782 19.587L9.743 19.574C8.53586 19.1788 7.45558 18.4695 6.613 17.519L6.573 17.469L6.458 17.333L6.411 17.273L6.409 17.271L6.374 17.229C6.37067 17.223 6.36733 17.2183 6.364 17.215L6.318 17.156L6.304 17.138L6.284 17.112L6.281 17.109L6.277 17.101L6.256 17.073C6.19525 16.9929 6.13754 16.9105 6.083 16.826L6.079 16.822C6.06978 16.8122 6.06264 16.8006 6.058 16.788L6.038 16.761C5.8743 14.3213 6.67387 11.9147 8.265 10.058C9.40319 8.72524 10.8927 7.73881 12.564 7.21101C12.5907 7.39368 12.6223 7.57801 12.659 7.76401C12.851 8.73101 13.172 9.70601 13.608 10.662C13.337 10.962 13.174 11.36 13.174 11.794ZM12.097 20.853C12.1498 20.7354 12.1768 20.6079 12.176 20.479C12.1778 20.3058 12.1273 20.136 12.031 19.992C11.965 19.8888 11.8787 19.8002 11.7773 19.7315C11.6759 19.6629 11.5616 19.6156 11.4413 19.5927C11.321 19.5698 11.1973 19.5716 11.0777 19.5982C10.9582 19.6247 10.8453 19.6753 10.746 19.747C10.6295 19.8302 10.5345 19.9401 10.4689 20.0674C10.4033 20.1947 10.3691 20.3358 10.369 20.479C10.369 20.616 10.399 20.751 10.458 20.874C10.5196 20.9984 10.6089 21.1071 10.719 21.1917C10.8291 21.2763 10.9571 21.3346 11.0932 21.3621C11.2292 21.3896 11.3698 21.3856 11.5041 21.3504C11.6384 21.3152 11.7629 21.2497 11.868 21.159C11.9654 21.0746 12.0435 20.9702 12.097 20.853Z" fill="white" fill-opacity="0.8"/>
</g>
</g>
<defs>
<clipPath id="clip0_1331_12">
<rect width="140" height="34" fill="white"/>
</clipPath>
</defs>
</svg>
