<svg width="204" height="204" viewBox="0 0 204 204" fill="none" xmlns="http://www.w3.org/2000/svg">
<rect width="204" height="204" rx="48" fill="url(#paint0_linear_1333_2)"/>
<g opacity="0.5">
<path d="M123.086 63.4617C124.046 59.8765 121.919 56.1913 118.334 55.2307C114.748 54.27 111.063 56.3977 110.102 59.9829L86.9099 146.538C85.9492 150.123 88.0765 153.808 91.6617 154.769C95.247 155.73 98.9326 153.602 99.8932 150.017L123.086 63.4617Z" fill="white"/>
<path d="M141.114 73.3653C138.489 70.7407 134.235 70.7407 131.61 73.3653C128.985 75.9899 128.985 80.2451 131.61 82.8697L133.147 84.4072C139.255 90.5157 143.349 94.6287 145.998 98.101C148.528 101.417 149.101 103.349 149.101 105C149.101 106.651 148.528 108.583 145.998 111.899C143.349 115.371 139.255 119.484 133.147 125.593L131.61 127.131C128.985 129.755 128.985 134.01 131.61 136.634C134.235 139.259 138.489 139.259 141.114 136.634L142.981 134.768C148.674 129.075 153.422 124.328 156.683 120.052C160.127 115.54 162.542 110.772 162.542 105C162.542 99.2283 160.127 94.4603 156.683 89.9476C153.422 85.6726 148.675 80.9259 142.983 75.2339L142.981 75.2322L141.114 73.3653Z" fill="white"/>
<path d="M78.39 73.3653C75.7654 70.7407 71.5102 70.7407 68.8856 73.3653L67.0186 75.2322C61.3254 80.925 56.5781 85.6722 53.3161 89.9476C49.873 94.4603 47.458 99.2283 47.458 105C47.458 110.772 49.873 115.54 53.3161 120.052C56.5781 124.328 61.3254 129.075 67.0186 134.768L68.8856 136.634C71.5102 139.259 75.7654 139.259 78.39 136.634C81.0146 134.01 81.0146 129.755 78.39 127.131L76.8525 125.593C70.7444 119.484 66.6513 115.371 64.0021 111.899C61.4713 108.583 60.8993 106.651 60.8993 105C60.8993 103.349 61.4713 101.417 64.0021 98.101C66.6513 94.6287 70.7444 90.5157 76.8525 84.4072L78.39 82.8697C81.0146 80.2451 81.0146 75.9899 78.39 73.3653Z" fill="white"/>
</g>
<path d="M119.086 59.4617C120.046 55.8765 117.919 52.1913 114.334 51.2307C110.748 50.27 107.063 52.3977 106.102 55.9829L82.9099 142.538C81.9492 146.123 84.0765 149.808 87.6617 150.769C91.247 151.73 94.9326 149.602 95.8932 146.017L119.086 59.4617Z" fill="white"/>
<path d="M137.114 69.3653C134.489 66.7407 130.235 66.7407 127.61 69.3653C124.985 71.9899 124.985 76.2451 127.61 78.8697L129.147 80.4072C135.255 86.5157 139.349 90.6287 141.998 94.101C144.528 97.4174 145.101 99.3485 145.101 101C145.101 102.651 144.528 104.583 141.998 107.899C139.349 111.371 135.255 115.484 129.147 121.593L127.61 123.131C124.985 125.755 124.985 130.01 127.61 132.634C130.235 135.259 134.489 135.259 137.114 132.634L138.981 130.768C144.674 125.075 149.422 120.328 152.683 116.052C156.127 111.54 158.542 106.772 158.542 101C158.542 95.2283 156.127 90.4603 152.683 85.9476C149.422 81.6726 144.675 76.9259 138.983 71.2339L138.981 71.2322L137.114 69.3653Z" fill="white"/>
<path d="M74.39 69.3653C71.7654 66.7407 67.5102 66.7407 64.8856 69.3653L63.0186 71.2322C57.3254 76.925 52.5781 81.6722 49.3161 85.9476C45.873 90.4603 43.458 95.2283 43.458 101C43.458 106.772 45.873 111.54 49.3161 116.052C52.5781 120.328 57.3254 125.075 63.0186 130.768L64.8856 132.634C67.5102 135.259 71.7654 135.259 74.39 132.634C77.0146 130.01 77.0146 125.755 74.39 123.131L72.8525 121.593C66.7444 115.484 62.6513 111.371 60.0021 107.899C57.4713 104.583 56.8993 102.651 56.8993 101C56.8993 99.3485 57.4713 97.4174 60.0021 94.101C62.6513 90.6287 66.7444 86.5157 72.8525 80.4072L74.39 78.8697C77.0146 76.2451 77.0146 71.9899 74.39 69.3653Z" fill="white"/>
<defs>
<linearGradient id="paint0_linear_1333_2" x1="2.43187e-05" y1="204" x2="204" y2="0" gradientUnits="userSpaceOnUse">
<stop stop-color="#8174F9"/>
<stop offset="0.235577" stop-color="#3470F1"/>
<stop offset="0.649038" stop-color="#963ACA"/>
<stop offset="1" stop-color="#F42DC2"/>
</linearGradient>
</defs>
</svg>
